<svg xmlns="http://www.w3.org/2000/svg" width="40px" height="40px" xmlns:xlink="http://www.w3.org/1999/xlink">
<path fill="rgb(255, 115, 115)" fill-rule="evenodd" d="M 36.411 25.566 L 33.618 22.755 C 35.268 20.303 35.966 17.246 35.46 14.115 C 34.653 9.117 30.616 5.117 25.641 4.387 C 22.606 3.94 19.646 4.658 17.257 6.28 L 14.459 3.464 C 17.738 0.994 21.912 -0.154 26.206 0.474 C 32.859 1.45 38.258 6.799 39.336 13.481 C 40.051 17.908 38.921 22.204 36.411 25.566 Z M 21.848 8.234 L 25.775 8.234 L 25.775 14.165 L 29.702 14.165 L 29.702 18.119 L 21.848 18.119 L 21.848 8.234 Z M 15.711 15.907 L 13.919 17.711 C 13.915 18.315 14.598 20.379 17.099 22.897 C 19.593 25.408 21.638 26.099 22.245 26.099 C 22.246 26.099 22.247 26.099 22.249 26.099 L 24.041 24.295 C 25.575 22.751 28.061 22.751 29.595 24.295 L 33.76 28.489 C 35.294 30.033 35.294 32.536 33.76 34.08 L 29.851 38.017 C 28.591 39.285 26.862 39.892 24.843 39.892 C 20.288 39.892 14.252 36.806 8.768 31.284 C 0.853 23.316 -2.022 14.19 2.082 10.058 L 5.991 6.121 C 7.525 4.577 10.011 4.577 11.545 6.121 L 15.711 10.315 C 17.245 11.859 17.244 14.363 15.711 15.907 Z" />
</svg>