<svg xmlns="http://www.w3.org/2000/svg" width="40px" height="40px" xmlns:xlink="http://www.w3.org/1999/xlink">
<path fill="rgb(255, 115, 115)" fill-rule="evenodd" d="M 31.999 26.002 C 31.999 24.898 32.894 24.003 33.999 24.003 L 39.999 24.003 L 39.999 28.001 L 33.999 28.001 C 32.894 28.001 31.999 27.106 31.999 26.002 Z M 40 40.001 L 0 40.001 L 0 12.013 L 40 12.013 L 40 20.01 L 34 20.01 C 30.686 20.01 28 22.695 28 26.007 C 28 29.319 30.686 32.005 34 32.005 L 40 32.005 L 40 40.001 Z M 12.44 0.739 C 12.82 0.299 13.36 0.019 13.94 0.019 C 14.54 -0.001 15.1 0.239 15.48 0.679 L 20.1 5.796 L 23.58 2.558 C 24.36 1.818 25.58 1.838 26.34 2.578 L 31.98 8.015 L 6.5 8.015 L 12.44 0.739 Z" />
</svg>