<svg xmlns="http://www.w3.org/2000/svg" width="40px" height="28px" xmlns:xlink="http://www.w3.org/1999/xlink">
<path fill="rgb(255, 115, 115)" fill-rule="evenodd" d="M 33.631 24 C 32.802 26.323 30.603 28 27.999 28 C 25.395 28 23.196 26.323 22.368 24 L 15.631 24 C 14.802 26.323 12.603 28 9.999 28 C 7.395 28 5.196 26.323 4.368 24 L 0 24 L 0 16 C 0 12.691 2.691 10 6 10 C 7.103 10 8 9.103 8 8 L 8 6 C 8 2.691 10.691 0 14 0 L 15.999 0 L 15.999 14 L 40 14 L 40 24 L 33.631 24 Z M 10 20 C 8.897 20 8 20.898 8 22 L 8 22.005 C 8.003 23.105 8.898 24 9.999 24 C 11.102 24 11.999 23.103 11.999 22 C 11.999 20.898 11.102 20 10 20 Z M 28 20 C 26.897 20 26 20.898 26 22 L 26 22.005 C 26.003 23.105 26.898 24 27.999 24 C 29.102 24 29.999 23.103 29.999 22 C 29.999 20.898 29.102 20 28 20 Z M 19.999 0 L 40 0 L 40 10 L 19.999 10 L 19.999 0 Z" />
</svg>