<svg xmlns="http://www.w3.org/2000/svg" width="40px" height="40px" xmlns:xlink="http://www.w3.org/1999/xlink">
<path fill="rgb(255, 115, 115)" fill-rule="evenodd" d="M 20 0 C 8.972 0 0 8.972 0 20 C 0 31.028 8.972 40 20 40 C 31.028 40 40 31.028 40 20 C 40 8.972 31.028 0 20 0 Z M 20 18 C 23.309 18 26 20.691 26 24 C 26 26.604 24.323 28.803 22 29.632 L 22 32 L 18 32 L 18 29.631 C 15.677 28.803 14 26.604 14 24 L 18 24 C 18 25.103 18.898 26 20 26 C 21.103 26 22 25.103 22 24 C 22 22.898 21.103 22 20 22 C 16.691 22 14 19.308 14 16 C 14 13.396 15.677 11.197 18 10.369 L 18 8 L 22 8 L 22 10.369 C 24.323 11.197 26 13.396 26 16 L 22 16 C 22 14.898 21.103 14 20 14 C 18.898 14 18 14.898 18 16 C 18 17.103 18.898 18 20 18 Z" />
</svg>