<svg xmlns="http://www.w3.org/2000/svg" width="40px" height="40px" xmlns:xlink="http://www.w3.org/1999/xlink">
<path fill="rgb(255, 115, 115)" fill-rule="evenodd" d="M 22 40 L 22 20 L 40 20 L 40 40 L 22 40 Z M 0 8 L 4.369 8 C 4.145 7.371 4 6.705 4 6 C 4 2.692 6.691 0 10 0 L 14 0 C 17.309 0 20 2.692 20 6 C 20 2.692 22.691 0 26 0 L 30 0 C 33.309 0 36 2.692 36 6 C 36 6.705 35.855 7.371 35.631 8 L 40 8 L 40 16 L 0 16 L 0 8 Z M 24 8 L 30 8 C 31.103 8 32 7.103 32 6 C 32 4.898 31.103 4 30 4 L 26 4 C 24.896 4 24 4.898 24 6 L 24 8 Z M 10 8 L 16 8 L 16 6 C 16 4.898 15.103 4 14 4 L 10 4 C 8.896 4 8 4.898 8 6 C 8 7.103 8.896 8 10 8 Z M 18 40 L 0 40 L 0 20 L 18 20 L 18 40 Z" />
</svg>